{"title":"The Book Of Eli EXTRATORRENTS TS XVID GM Elite quality","uid":5345805,"size":1668242819,"categoryP":"video","categoryS":"movies","magnet":"?xt=urn:btih:abaec2931f1fe47539a63fee2ce7e3aa5a9fd11d&amp;dn=The+Book+Of+Eli+EXTRATORRENTS+TS+XVID+GM+Elite+quality&amp;tr=udp%3A%2F%2Ftracker.openbittorrent.com%3A80&amp;tr=udp%3A%2F%2Fopen.demonii.com%3A1337&amp;tr=udp%3A%2F%2Ftracker.coppersurfer.tk%3A6969&amp;tr=udp%3A%2F%2Fexodus.desync.com%3A6969","seeders":0,"leechers":0,"uploader":"stealthmirrors","files":-1,"time":1265589294,"description":"Screenshots:\n  &lt;a href=&quot;\nhttp://img27.imageshack.us/my.php?image=thebookofeli01821419401.png&quot; rel=&quot;nofollow&quot; target=&quot;_NEW&quot;&gt;\nhttp://img27.imageshack.us/my.php?image=thebookofeli01821419401.png&lt;/a&gt;  &lt;a href=&quot;\nhttp://img64.imageshack.us/my.php?image=thebookofeli01841519403.png&quot; rel=&quot;nofollow&quot; target=&quot;_NEW&quot;&gt;\nhttp://img64.imageshack.us/my.php?image=thebookofeli01841519403.png&lt;/a&gt;  &lt;a href=&quot;\nhttp://img5.imageshack.us/my.php?image=thebookofeli02192019394.png&quot; rel=&quot;nofollow&quot; target=&quot;_NEW&quot;&gt;\nhttp://img5.imageshack.us/my.php?image=thebookofeli02192019394.png&lt;/a&gt;  &lt;a href=&quot;\nhttp://img27.imageshack.us/my.php?image=thebookofeli02245719393.png&quot; rel=&quot;nofollow&quot; target=&quot;_NEW&quot;&gt;\nhttp://img27.imageshack.us/my.php?image=thebookofeli02245719393.png&lt;/a&gt;  &lt;a href=&quot;\nhttp://img27.imageshack.us/my.php?image=thebookofeli03318119405.png&quot; rel=&quot;nofollow&quot; target=&quot;_NEW&quot;&gt;\nhttp://img27.imageshack.us/my.php?image=thebookofeli03318119405.png&lt;/a&gt;  &lt;a href=&quot;\nhttp://img716.imageshack.us/my.php?image=thebookofeli07743919411.png&quot; rel=&quot;nofollow&quot; target=&quot;_NEW&quot;&gt;\nhttp://img716.imageshack.us/my.php?image=thebookofeli07743919411.png&lt;/a&gt;  &lt;a href=&quot;\nhttp://img5.imageshack.us/my.php?image=thebookofeli08048719412.png&quot; rel=&quot;nofollow&quot; target=&quot;_NEW&quot;&gt;\nhttp://img5.imageshack.us/my.php?image=thebookofeli08048719412.png&lt;/a&gt;  &lt;a href=&quot;\nhttp://img64.imageshack.us/my.php?image=thebookofeli16071719420.png&quot; rel=&quot;nofollow&quot; target=&quot;_NEW&quot;&gt;\nhttp://img64.imageshack.us/my.php?image=thebookofeli16071719420.png&lt;/a&gt;\n\nDETAILS:\n\nVideo\nID                               : 0\nFormat                           : AVI\nFormat profile                   : Advanced Simple@L5\nFormat settings, BVOP            : Yes\nFormat settings, QPel            : No\nFormat settings, GMC             : No warppoints\nFormat settings, Matrix          : Default (H.263)\nMuxing mode                      : Packed bitstream\nCodec ID                         : XVID\nCodec ID/Hint                    : XviD\nDuration                         : 1h 48mn\nBit rate                         : 773 Kbps\nWidth                            : 608 pixels\nHeight                           : 256 pixels\nDisplay aspect ratio             : 2.35\nFrame rate                       : 23.976 fps\nResolution                       : 24 bits\nColorimetry                      : 4:2:0\nScan type                        : Progressive\nBits/(Pixel*Frame)               : 0.207\nStream size                      : 599 MiB (85%)\nWriting library                  : XviD 1.2.1 (UTC 2008-12-04)\n\nAudio\nID                               : 1\nFormat                           : MPEG Audio\nFormat version                   : Version 1\nFormat profile                   : Layer 3\nCodec ID                         : 55\nCodec ID/Hint                    : MP3\nDuration                         : 1h 48mn\nBit rate mode                    : Constant\nBit rate                         : 128 Kbps\nChannel(s)                       : 2 channels\nSampling rate                    : 44.1 KHz\nResolution                       : 16 bits\nVideo delay                      : 25ms\nStream size                      : 99.1 MiB (14%)\nAlignment                        : Split accross interleaves\nInterleave, duration             : 42 ms (1.00 video frame)\nInterleave, preload duration     : 500 ms\n\n","torrent":{"xt":"urn:btih:abaec2931f1fe47539a63fee2ce7e3aa5a9fd11d","amp;dn":"The+Book+Of+Eli+EXTRATORRENTS+TS+XVID+GM+Elite+quality","amp;tr":["udp%3A%2F%2Ftracker.openbittorrent.com%3A80","udp%3A%2F%2Fopen.demonii.com%3A1337","udp%3A%2F%2Ftracker.coppersurfer.tk%3A6969","udp%3A%2F%2Fexodus.desync.com%3A6969"],"infoHash":"abaec2931f1fe47539a63fee2ce7e3aa5a9fd11d","infoHashBuffer":{"type":"Buffer","data":[171,174,194,147,31,31,228,117,57,166,63,238,44,231,227,170,90,159,209,29]},"announce":[],"urlList":[]}}